<svg width="400" height="400" viewBox="0 0 400 400" fill="none" xmlns="http://www.w3.org/2000/svg">
<path fill-rule="evenodd" clip-rule="evenodd" d="M230.315 12.681C210.713 4.5615 188.688 4.56151 169.086 12.681L88.8939 45.8976C69.2916 54.0172 53.7177 69.5911 45.5982 89.1933L12.3816 169.385C4.26208 188.988 4.26209 211.012 12.3816 230.615L45.5982 310.807C53.7177 330.409 69.2917 345.983 88.8939 354.102L169.086 387.319C188.688 395.439 210.713 395.439 230.315 387.319L310.507 354.102C330.11 345.983 345.683 330.409 353.803 310.807L387.02 230.615C395.139 211.012 395.139 188.988 387.02 169.385L353.803 89.1933C345.683 69.5911 330.109 54.0171 310.507 45.8976L230.315 12.681ZM193.041 218.735C188.83 217.344 185.528 214.813 183.218 211.674L199.145 199.982L180.207 193.725C181.398 189.891 183.792 186.329 187.48 183.622L195.519 177.721L205.419 180.992C220.849 186.09 224.08 206.487 210.98 216.104L202.941 222.006L193.041 218.735ZM202.941 222.006L296.06 252.77C310.281 257.469 324.431 245.444 322.088 230.651L306.528 132.411C304.185 117.618 287.012 110.555 274.939 119.418L195.519 177.721L102.4 146.956C88.1783 142.258 74.0287 154.282 76.3717 169.075L91.9314 267.315C94.2744 282.108 111.447 289.172 123.521 280.309L202.941 222.006ZM180.207 193.725C178.321 199.795 179.446 206.546 183.218 211.674L111.685 264.187L96.1255 165.946L180.207 193.725Z" fill="#743089"/>
</svg>
