<svg width="400" height="400" viewBox="0 0 400 400" fill="none" xmlns="http://www.w3.org/2000/svg">
<path fill-rule="evenodd" clip-rule="evenodd" d="M183.518 211.674C185.828 214.813 189.13 217.344 193.341 218.735L203.241 222.006L123.82 280.309C111.747 289.172 94.5738 282.108 92.2308 267.315L76.6711 169.075C74.3281 154.282 88.4777 142.257 102.699 146.956L195.818 177.721L187.779 183.622C184.091 186.329 181.698 189.891 180.506 193.725L96.4249 165.946L111.985 264.187L183.518 211.674ZM183.518 211.674C179.746 206.546 178.62 199.794 180.506 193.725L199.444 199.982L183.518 211.674ZM195.818 177.721L275.239 119.418C287.312 110.555 304.485 117.618 306.828 132.411L322.387 230.651C324.73 245.444 310.581 257.469 296.36 252.77L203.241 222.006L211.279 216.104C224.379 206.487 221.149 186.09 205.718 180.992L195.818 177.721Z" fill="black"/>
</svg>
